<svg id="canvas" height="auto" xmlns="http://www.w3.org/2000/svg" version="1.1" xmlns:xlink="http://www.w3.org/1999/xlink" xmlns:svgjs="http://svgjs.dev/svgjs" viewBox="0 0 900 512" width="auto" style="width: auto; height: auto;"><rect width="900" height="512" fill="#000000ff"/><path d="M121.39816559010183 314.1463966413512C81.56057870372956 328.1140304722803 23.867273876056174 305.87879881699905 -21.926077600566543 303.1218642874694C-67.71942907718926 300.36492975793976 -117.62615071788744 307.2527458489659 -153.3619432696343 297.6047894641737C-189.09773582138118 287.95683307938145 -205.68162546025445 270.39174186026173 -236.34083291104778 245.23412597871607C-267.0000403618411 220.0765100971704 -318.94171631471943 193.59615928878566 -337.31718797439436 146.65909417489968C-355.6926596340693 99.7220290610137 -346.06153994964615 14.961822349186036 -346.5936628690974 -36.388264704599976C-347.1257857885486 -87.73835175838599 -356.97804375269027 -126.57808297936029 -340.50992549110174 -161.44142814781657C-324.0418072295132 -196.30477331627284 -279.36525423988 -216.35258558984378 -247.78495329956615 -245.56833571533758C-216.2046523592523 -274.7840858408314 -194.0264172494101 -319.45826171357123 -151.0281198492185 -336.7359289007793C-108.02982244902694 -354.01359608798737 -40.62263273958638 -349.5940120377816 10.204831101583238 -349.23433883858587C61.032294942752856 -348.8746656393901 116.34216528577753 -351.2545068917674 153.93666319779913 -334.5778897056049C191.5311611098207 -317.9012725194424 207.6702043719023 -281.19910689955424 235.77181857371284 -249.17463572161077C263.8734327755234 -217.1501645436673 299.61510715666805 -185.99317886396855 322.5463484086624 -142.43106263794417C345.4775896606568 -98.86894641191975 367.65459086758574 -37.51451667299233 373.359266085679 12.19806163453552C379.06394130377225 61.91063994206337 382.81770344522386 121.32474059599639 356.77439971722185 155.84440720722296C330.73109598921985 190.36407381844958 256.3288160721871 192.93239639620697 217.0994437176671 219.31606130189505C177.87007136314708 245.69972620758313 161.2357524764741 300.1787628104221 121.39816559010183 314.1463966413512C81.56057870372956 328.1140304722803 23.867273876056174 305.87879881699905 -21.926077600566543 303.1218642874694 " fill="url(#SvgjsLinearGradient1058)"/><defs><linearGradient gradientTransform="matrix(1,0,0,1,0,0)" id="SvgjsLinearGradient1058"><stop stop-color="#e71989ff" offset="0"/><stop stop-color="#e77719ff" offset="1"/></linearGradient><linearGradient gradientTransform="matrix(1,0,0,1,0,0)" id="SvgjsLinearGradient1059"><stop stop-color="#e71989ff" offset="0"/><stop stop-color="#e77719ff" offset="1"/></linearGradient></defs><path d="M986.8953769368786 882.9247355970325C953.2462400195683 903.8202572315236 921.8418152067322 920.7931816009423 882.0744223733029 927.5096214563275C842.3070295398735 934.2260613117128 787.8798016146809 937.4216316445278 748.2910199363023 923.2233747293443C708.7022382579237 909.0251178141608 676.0459474681352 873.3293560408872 644.5417323030312 842.3200799652265C613.0375171379271 811.3108038895657 574.6334413735111 776.2419567558511 559.2657289456781 737.1677182753797C543.898016517845 698.0934797949083 552.2674552745651 652.2075634505172 552.3354577360328 607.8746490823976C552.4034601975006 563.541734714278 544.1637302694191 511.88887588395465 559.6737437144848 471.17023206666227C575.1837571595504 430.45158824936993 614.6852310899883 395.9706743368102 645.3955384064265 363.56278617864336C676.1058457228646 331.1548980204765 703.1138467594485 292.44688376475506 743.9355876131139 276.7229031176612C784.7573284667792 260.9989224705673 843.1040611788329 269.0247064399679 890.3259835284189 269.21890229608005C937.5479058780049 269.4130981521922 999.3415339724219 261.8756898698754 1027.26712171063 277.8880782543342C1055.192709448838 293.900466638793 1037.7300657889987 336.90738184336044 1057.8795099576676 365.2932326028328C1078.0289541263364 393.67908336230516 1114.386112333872 404.5449692483779 1148.1637867226434 448.2031828111683C1181.9414611114148 491.8613963739586 1242.4057711157361 573.3832624461453 1260.5455562902955 627.2425139795748C1278.685341464855 681.1017655130044 1286.4318831721887 742.2096957334443 1257.0024977700002 771.3586920117453C1227.5731123678117 800.5076882900464 1128.987097349352 783.5421510518333 1083.969243877165 802.1364916493812C1038.9513904049782 820.7308322469291 1020.544513854189 862.0292139625415 986.8953769368786 882.9247355970325C953.2462400195683 903.8202572315236 921.8418152067322 920.7931816009423 882.0744223733029 927.5096214563275 " fill="url(#SvgjsLinearGradient1059)" transform="matrix(-1,1.2246467991473532e-16,-1.2246467991473532e-16,-1,1826.64697265625,1200.2149047851562)"/></svg>