<svg xmlns="http://www.w3.org/2000/svg" version="1.1" xmlns:xlink="http://www.w3.org/1999/xlink" xmlns:svgjs="http://svgjs.dev/svgjs" width="1440" height="700" preserveAspectRatio="none" viewBox="0 0 1440 700"><g mask="url(&quot;#SvgjsMask1413&quot;)" fill="none"><rect width="1440" height="700" x="0" y="0" fill="#0e2a47"></rect><path d="M79.4 62.73L144.36 100.23L144.36 175.23L79.4 212.73L14.45 175.23L14.45 100.23zM14.45 175.23L79.4 212.73L79.4 287.73L14.45 325.23L-50.5 287.73L-50.5 212.73zM144.36 -49.77L209.31 -12.27L209.31 62.73L144.36 100.23L79.4 62.73L79.4 -12.27zM469.13 62.73L534.08 100.23L534.08 175.23L469.13 212.73L404.17 175.23L404.17 100.23zM404.17 175.23L469.13 212.73L469.13 287.73L404.17 325.23L339.22 287.73L339.22 212.73zM469.13 287.73L534.08 325.23L534.08 400.23L469.13 437.73L404.17 400.23L404.17 325.23zM469.13 512.73L534.08 550.23L534.08 625.23L469.13 662.73L404.17 625.23L404.17 550.23zM534.08 -49.77L599.03 -12.27L599.03 62.73L534.08 100.23L469.13 62.73L469.13 -12.27zM599.03 287.73L663.99 325.23L663.99 400.23L599.03 437.73L534.08 400.23L534.08 325.23zM599.03 512.73L663.99 550.23L663.99 625.23L599.03 662.73L534.08 625.23L534.08 550.23zM534.08 625.23L599.03 662.73L599.03 737.73L534.08 775.23L469.13 737.73L469.13 662.73zM663.99 -49.77L728.94 -12.27L728.94 62.73L663.99 100.23L599.03 62.73L599.03 -12.27zM728.94 62.73L793.9 100.23L793.9 175.23L728.94 212.73L663.99 175.23L663.99 100.23zM663.99 175.23L728.94 212.73L728.94 287.73L663.99 325.23L599.03 287.73L599.03 212.73zM728.94 287.73L793.9 325.23L793.9 400.23L728.94 437.73L663.99 400.23L663.99 325.23zM663.99 625.23L728.94 662.73L728.94 737.73L663.99 775.23L599.03 737.73L599.03 662.73zM793.89 400.23L858.85 437.73L858.85 512.73L793.89 550.23L728.94 512.73L728.94 437.73zM858.85 512.73L923.8 550.23L923.8 625.23L858.85 662.73L793.89 625.23L793.89 550.23zM793.89 625.23L858.85 662.73L858.85 737.73L793.89 775.23L728.94 737.73L728.94 662.73zM923.8 -49.77L988.76 -12.27L988.76 62.73L923.8 100.23L858.85 62.73L858.85 -12.27zM988.76 62.73L1053.71 100.23L1053.71 175.23L988.76 212.73L923.8 175.23L923.8 100.23zM988.76 287.73L1053.71 325.23L1053.71 400.23L988.76 437.73L923.8 400.23L923.8 325.23zM988.76 512.73L1053.71 550.23L1053.71 625.23L988.76 662.73L923.8 625.23L923.8 550.23zM1053.71 -49.77L1118.66 -12.27L1118.66 62.73L1053.71 100.23L988.76 62.73L988.76 -12.27zM1118.66 62.73L1183.62 100.23L1183.62 175.23L1118.66 212.73L1053.71 175.23L1053.71 100.23zM1053.71 175.23L1118.66 212.73L1118.66 287.73L1053.71 325.23L988.76 287.73L988.76 212.73zM1053.71 400.23L1118.66 437.73L1118.66 512.73L1053.71 550.23L988.76 512.73L988.76 437.73zM1118.66 512.73L1183.62 550.23L1183.62 625.23L1118.66 662.73L1053.71 625.23L1053.71 550.23zM1183.62 -49.77L1248.57 -12.27L1248.57 62.73L1183.62 100.23L1118.66 62.73L1118.66 -12.27zM1248.57 287.73L1313.52 325.23L1313.52 400.23L1248.57 437.73L1183.62 400.23L1183.62 325.23zM1313.53 -49.77L1378.48 -12.27L1378.48 62.73L1313.53 100.23L1248.57 62.73L1248.57 -12.27zM1378.48 287.73L1443.43 325.23L1443.43 400.23L1378.48 437.73L1313.53 400.23L1313.53 325.23zM1313.53 625.23L1378.48 662.73L1378.48 737.73L1313.53 775.23L1248.57 737.73L1248.57 662.73zM1508.39 287.73L1573.34 325.23L1573.34 400.23L1508.39 437.73L1443.43 400.23L1443.43 325.23zM1508.39 512.73L1573.34 550.23L1573.34 625.23L1508.39 662.73L1443.43 625.23L1443.43 550.23zM1443.43 625.23L1508.39 662.73L1508.39 737.73L1443.43 775.23L1378.48 737.73L1378.48 662.73z" stroke="#03305d" stroke-width="2"></path><path d="M71.9 62.73 a7.5 7.5 0 1 0 15 0 a7.5 7.5 0 1 0 -15 0zM136.86 100.23 a7.5 7.5 0 1 0 15 0 a7.5 7.5 0 1 0 -15 0zM136.86 175.23 a7.5 7.5 0 1 0 15 0 a7.5 7.5 0 1 0 -15 0zM71.9 212.73 a7.5 7.5 0 1 0 15 0 a7.5 7.5 0 1 0 -15 0zM6.95 175.23 a7.5 7.5 0 1 0 15 0 a7.5 7.5 0 1 0 -15 0zM6.95 100.23 a7.5 7.5 0 1 0 15 0 a7.5 7.5 0 1 0 -15 0zM71.9 287.73 a7.5 7.5 0 1 0 15 0 a7.5 7.5 0 1 0 -15 0zM6.95 325.23 a7.5 7.5 0 1 0 15 0 a7.5 7.5 0 1 0 -15 0zM-58 287.73 a7.5 7.5 0 1 0 15 0 a7.5 7.5 0 1 0 -15 0zM-58 212.73 a7.5 7.5 0 1 0 15 0 a7.5 7.5 0 1 0 -15 0zM136.86 -49.77 a7.5 7.5 0 1 0 15 0 a7.5 7.5 0 1 0 -15 0zM201.81 -12.27 a7.5 7.5 0 1 0 15 0 a7.5 7.5 0 1 0 -15 0zM201.81 62.73 a7.5 7.5 0 1 0 15 0 a7.5 7.5 0 1 0 -15 0zM71.9 -12.27 a7.5 7.5 0 1 0 15 0 a7.5 7.5 0 1 0 -15 0zM461.63 62.73 a7.5 7.5 0 1 0 15 0 a7.5 7.5 0 1 0 -15 0zM526.58 100.23 a7.5 7.5 0 1 0 15 0 a7.5 7.5 0 1 0 -15 0zM526.58 175.23 a7.5 7.5 0 1 0 15 0 a7.5 7.5 0 1 0 -15 0zM461.63 212.73 a7.5 7.5 0 1 0 15 0 a7.5 7.5 0 1 0 -15 0zM396.67 175.23 a7.5 7.5 0 1 0 15 0 a7.5 7.5 0 1 0 -15 0zM396.67 100.23 a7.5 7.5 0 1 0 15 0 a7.5 7.5 0 1 0 -15 0zM461.63 287.73 a7.5 7.5 0 1 0 15 0 a7.5 7.5 0 1 0 -15 0zM396.67 325.23 a7.5 7.5 0 1 0 15 0 a7.5 7.5 0 1 0 -15 0zM331.72 287.73 a7.5 7.5 0 1 0 15 0 a7.5 7.5 0 1 0 -15 0zM331.72 212.73 a7.5 7.5 0 1 0 15 0 a7.5 7.5 0 1 0 -15 0zM526.58 325.23 a7.5 7.5 0 1 0 15 0 a7.5 7.5 0 1 0 -15 0zM526.58 400.23 a7.5 7.5 0 1 0 15 0 a7.5 7.5 0 1 0 -15 0zM461.63 437.73 a7.5 7.5 0 1 0 15 0 a7.5 7.5 0 1 0 -15 0zM396.67 400.23 a7.5 7.5 0 1 0 15 0 a7.5 7.5 0 1 0 -15 0zM461.63 512.73 a7.5 7.5 0 1 0 15 0 a7.5 7.5 0 1 0 -15 0zM526.58 550.23 a7.5 7.5 0 1 0 15 0 a7.5 7.5 0 1 0 -15 0zM526.58 625.23 a7.5 7.5 0 1 0 15 0 a7.5 7.5 0 1 0 -15 0zM461.63 662.73 a7.5 7.5 0 1 0 15 0 a7.5 7.5 0 1 0 -15 0zM396.67 625.23 a7.5 7.5 0 1 0 15 0 a7.5 7.5 0 1 0 -15 0zM396.67 550.23 a7.5 7.5 0 1 0 15 0 a7.5 7.5 0 1 0 -15 0zM526.58 -49.77 a7.5 7.5 0 1 0 15 0 a7.5 7.5 0 1 0 -15 0zM591.53 -12.27 a7.5 7.5 0 1 0 15 0 a7.5 7.5 0 1 0 -15 0zM591.53 62.73 a7.5 7.5 0 1 0 15 0 a7.5 7.5 0 1 0 -15 0zM461.63 -12.27 a7.5 7.5 0 1 0 15 0 a7.5 7.5 0 1 0 -15 0zM591.53 287.73 a7.5 7.5 0 1 0 15 0 a7.5 7.5 0 1 0 -15 0zM656.49 325.23 a7.5 7.5 0 1 0 15 0 a7.5 7.5 0 1 0 -15 0zM656.49 400.23 a7.5 7.5 0 1 0 15 0 a7.5 7.5 0 1 0 -15 0zM591.53 437.73 a7.5 7.5 0 1 0 15 0 a7.5 7.5 0 1 0 -15 0zM591.53 512.73 a7.5 7.5 0 1 0 15 0 a7.5 7.5 0 1 0 -15 0zM656.49 550.23 a7.5 7.5 0 1 0 15 0 a7.5 7.5 0 1 0 -15 0zM656.49 625.23 a7.5 7.5 0 1 0 15 0 a7.5 7.5 0 1 0 -15 0zM591.53 662.73 a7.5 7.5 0 1 0 15 0 a7.5 7.5 0 1 0 -15 0zM591.53 737.73 a7.5 7.5 0 1 0 15 0 a7.5 7.5 0 1 0 -15 0zM526.58 775.23 a7.5 7.5 0 1 0 15 0 a7.5 7.5 0 1 0 -15 0zM461.63 737.73 a7.5 7.5 0 1 0 15 0 a7.5 7.5 0 1 0 -15 0zM656.49 -49.77 a7.5 7.5 0 1 0 15 0 a7.5 7.5 0 1 0 -15 0zM721.44 -12.27 a7.5 7.5 0 1 0 15 0 a7.5 7.5 0 1 0 -15 0zM721.44 62.73 a7.5 7.5 0 1 0 15 0 a7.5 7.5 0 1 0 -15 0zM656.49 100.23 a7.5 7.5 0 1 0 15 0 a7.5 7.5 0 1 0 -15 0zM786.4 100.23 a7.5 7.5 0 1 0 15 0 a7.5 7.5 0 1 0 -15 0zM786.4 175.23 a7.5 7.5 0 1 0 15 0 a7.5 7.5 0 1 0 -15 0zM721.44 212.73 a7.5 7.5 0 1 0 15 0 a7.5 7.5 0 1 0 -15 0zM656.49 175.23 a7.5 7.5 0 1 0 15 0 a7.5 7.5 0 1 0 -15 0zM721.44 287.73 a7.5 7.5 0 1 0 15 0 a7.5 7.5 0 1 0 -15 0zM591.53 212.73 a7.5 7.5 0 1 0 15 0 a7.5 7.5 0 1 0 -15 0zM786.4 325.23 a7.5 7.5 0 1 0 15 0 a7.5 7.5 0 1 0 -15 0zM786.4 400.23 a7.5 7.5 0 1 0 15 0 a7.5 7.5 0 1 0 -15 0zM721.44 437.73 a7.5 7.5 0 1 0 15 0 a7.5 7.5 0 1 0 -15 0zM721.44 662.73 a7.5 7.5 0 1 0 15 0 a7.5 7.5 0 1 0 -15 0zM721.44 737.73 a7.5 7.5 0 1 0 15 0 a7.5 7.5 0 1 0 -15 0zM656.49 775.23 a7.5 7.5 0 1 0 15 0 a7.5 7.5 0 1 0 -15 0zM786.39 400.23 a7.5 7.5 0 1 0 15 0 a7.5 7.5 0 1 0 -15 0zM851.35 437.73 a7.5 7.5 0 1 0 15 0 a7.5 7.5 0 1 0 -15 0zM851.35 512.73 a7.5 7.5 0 1 0 15 0 a7.5 7.5 0 1 0 -15 0zM786.39 550.23 a7.5 7.5 0 1 0 15 0 a7.5 7.5 0 1 0 -15 0zM721.44 512.73 a7.5 7.5 0 1 0 15 0 a7.5 7.5 0 1 0 -15 0zM916.3 550.23 a7.5 7.5 0 1 0 15 0 a7.5 7.5 0 1 0 -15 0zM916.3 625.23 a7.5 7.5 0 1 0 15 0 a7.5 7.5 0 1 0 -15 0zM851.35 662.73 a7.5 7.5 0 1 0 15 0 a7.5 7.5 0 1 0 -15 0zM786.39 625.23 a7.5 7.5 0 1 0 15 0 a7.5 7.5 0 1 0 -15 0zM851.35 737.73 a7.5 7.5 0 1 0 15 0 a7.5 7.5 0 1 0 -15 0zM786.39 775.23 a7.5 7.5 0 1 0 15 0 a7.5 7.5 0 1 0 -15 0zM916.3 -49.77 a7.5 7.5 0 1 0 15 0 a7.5 7.5 0 1 0 -15 0zM981.26 -12.27 a7.5 7.5 0 1 0 15 0 a7.5 7.5 0 1 0 -15 0zM981.26 62.73 a7.5 7.5 0 1 0 15 0 a7.5 7.5 0 1 0 -15 0zM916.3 100.23 a7.5 7.5 0 1 0 15 0 a7.5 7.5 0 1 0 -15 0zM851.35 62.73 a7.5 7.5 0 1 0 15 0 a7.5 7.5 0 1 0 -15 0zM851.35 -12.27 a7.5 7.5 0 1 0 15 0 a7.5 7.5 0 1 0 -15 0zM1046.21 100.23 a7.5 7.5 0 1 0 15 0 a7.5 7.5 0 1 0 -15 0zM1046.21 175.23 a7.5 7.5 0 1 0 15 0 a7.5 7.5 0 1 0 -15 0zM981.26 212.73 a7.5 7.5 0 1 0 15 0 a7.5 7.5 0 1 0 -15 0zM916.3 175.23 a7.5 7.5 0 1 0 15 0 a7.5 7.5 0 1 0 -15 0zM981.26 287.73 a7.5 7.5 0 1 0 15 0 a7.5 7.5 0 1 0 -15 0zM1046.21 325.23 a7.5 7.5 0 1 0 15 0 a7.5 7.5 0 1 0 -15 0zM1046.21 400.23 a7.5 7.5 0 1 0 15 0 a7.5 7.5 0 1 0 -15 0zM981.26 437.73 a7.5 7.5 0 1 0 15 0 a7.5 7.5 0 1 0 -15 0zM916.3 400.23 a7.5 7.5 0 1 0 15 0 a7.5 7.5 0 1 0 -15 0zM916.3 325.23 a7.5 7.5 0 1 0 15 0 a7.5 7.5 0 1 0 -15 0zM981.26 512.73 a7.5 7.5 0 1 0 15 0 a7.5 7.5 0 1 0 -15 0zM1046.21 550.23 a7.5 7.5 0 1 0 15 0 a7.5 7.5 0 1 0 -15 0zM1046.21 625.23 a7.5 7.5 0 1 0 15 0 a7.5 7.5 0 1 0 -15 0zM981.26 662.73 a7.5 7.5 0 1 0 15 0 a7.5 7.5 0 1 0 -15 0zM1046.21 -49.77 a7.5 7.5 0 1 0 15 0 a7.5 7.5 0 1 0 -15 0zM1111.16 -12.27 a7.5 7.5 0 1 0 15 0 a7.5 7.5 0 1 0 -15 0zM1111.16 62.73 a7.5 7.5 0 1 0 15 0 a7.5 7.5 0 1 0 -15 0zM1176.12 100.23 a7.5 7.5 0 1 0 15 0 a7.5 7.5 0 1 0 -15 0zM1176.12 175.23 a7.5 7.5 0 1 0 15 0 a7.5 7.5 0 1 0 -15 0zM1111.16 212.73 a7.5 7.5 0 1 0 15 0 a7.5 7.5 0 1 0 -15 0zM1111.16 287.73 a7.5 7.5 0 1 0 15 0 a7.5 7.5 0 1 0 -15 0zM1111.16 437.73 a7.5 7.5 0 1 0 15 0 a7.5 7.5 0 1 0 -15 0zM1111.16 512.73 a7.5 7.5 0 1 0 15 0 a7.5 7.5 0 1 0 -15 0zM1176.12 550.23 a7.5 7.5 0 1 0 15 0 a7.5 7.5 0 1 0 -15 0zM1176.12 625.23 a7.5 7.5 0 1 0 15 0 a7.5 7.5 0 1 0 -15 0zM1111.16 662.73 a7.5 7.5 0 1 0 15 0 a7.5 7.5 0 1 0 -15 0zM1176.12 -49.77 a7.5 7.5 0 1 0 15 0 a7.5 7.5 0 1 0 -15 0zM1241.07 -12.27 a7.5 7.5 0 1 0 15 0 a7.5 7.5 0 1 0 -15 0zM1241.07 62.73 a7.5 7.5 0 1 0 15 0 a7.5 7.5 0 1 0 -15 0zM1241.07 287.73 a7.5 7.5 0 1 0 15 0 a7.5 7.5 0 1 0 -15 0zM1306.02 325.23 a7.5 7.5 0 1 0 15 0 a7.5 7.5 0 1 0 -15 0zM1306.02 400.23 a7.5 7.5 0 1 0 15 0 a7.5 7.5 0 1 0 -15 0zM1241.07 437.73 a7.5 7.5 0 1 0 15 0 a7.5 7.5 0 1 0 -15 0zM1176.12 400.23 a7.5 7.5 0 1 0 15 0 a7.5 7.5 0 1 0 -15 0zM1176.12 325.23 a7.5 7.5 0 1 0 15 0 a7.5 7.5 0 1 0 -15 0zM1306.03 -49.77 a7.5 7.5 0 1 0 15 0 a7.5 7.5 0 1 0 -15 0zM1370.98 -12.27 a7.5 7.5 0 1 0 15 0 a7.5 7.5 0 1 0 -15 0zM1370.98 62.73 a7.5 7.5 0 1 0 15 0 a7.5 7.5 0 1 0 -15 0zM1306.03 100.23 a7.5 7.5 0 1 0 15 0 a7.5 7.5 0 1 0 -15 0zM1370.98 287.73 a7.5 7.5 0 1 0 15 0 a7.5 7.5 0 1 0 -15 0zM1435.93 325.23 a7.5 7.5 0 1 0 15 0 a7.5 7.5 0 1 0 -15 0zM1435.93 400.23 a7.5 7.5 0 1 0 15 0 a7.5 7.5 0 1 0 -15 0zM1370.98 437.73 a7.5 7.5 0 1 0 15 0 a7.5 7.5 0 1 0 -15 0zM1306.03 400.23 a7.5 7.5 0 1 0 15 0 a7.5 7.5 0 1 0 -15 0zM1306.03 325.23 a7.5 7.5 0 1 0 15 0 a7.5 7.5 0 1 0 -15 0zM1306.03 625.23 a7.5 7.5 0 1 0 15 0 a7.5 7.5 0 1 0 -15 0zM1370.98 662.73 a7.5 7.5 0 1 0 15 0 a7.5 7.5 0 1 0 -15 0zM1370.98 737.73 a7.5 7.5 0 1 0 15 0 a7.5 7.5 0 1 0 -15 0zM1306.03 775.23 a7.5 7.5 0 1 0 15 0 a7.5 7.5 0 1 0 -15 0zM1241.07 737.73 a7.5 7.5 0 1 0 15 0 a7.5 7.5 0 1 0 -15 0zM1241.07 662.73 a7.5 7.5 0 1 0 15 0 a7.5 7.5 0 1 0 -15 0zM1500.89 287.73 a7.5 7.5 0 1 0 15 0 a7.5 7.5 0 1 0 -15 0zM1565.84 325.23 a7.5 7.5 0 1 0 15 0 a7.5 7.5 0 1 0 -15 0zM1565.84 400.23 a7.5 7.5 0 1 0 15 0 a7.5 7.5 0 1 0 -15 0zM1500.89 437.73 a7.5 7.5 0 1 0 15 0 a7.5 7.5 0 1 0 -15 0zM1500.89 512.73 a7.5 7.5 0 1 0 15 0 a7.5 7.5 0 1 0 -15 0zM1565.84 550.23 a7.5 7.5 0 1 0 15 0 a7.5 7.5 0 1 0 -15 0zM1565.84 625.23 a7.5 7.5 0 1 0 15 0 a7.5 7.5 0 1 0 -15 0zM1500.89 662.73 a7.5 7.5 0 1 0 15 0 a7.5 7.5 0 1 0 -15 0zM1435.93 625.23 a7.5 7.5 0 1 0 15 0 a7.5 7.5 0 1 0 -15 0zM1435.93 550.23 a7.5 7.5 0 1 0 15 0 a7.5 7.5 0 1 0 -15 0zM1500.89 737.73 a7.5 7.5 0 1 0 15 0 a7.5 7.5 0 1 0 -15 0zM1435.93 775.23 a7.5 7.5 0 1 0 15 0 a7.5 7.5 0 1 0 -15 0z" fill="#03305d"></path><path d="M6.18 133.51L49.48 158.51L49.48 208.51L6.18 233.51L-37.12 208.51L-37.12 158.51zM49.48 508.51L92.78 533.51L92.78 583.51L49.48 608.51L6.18 583.51L6.18 533.51zM49.48 658.51L92.78 683.51L92.78 733.51L49.48 758.51L6.18 733.51L6.18 683.51zM136.09 208.51L179.39 233.51L179.39 283.51L136.09 308.51L92.78 283.51L92.78 233.51zM92.78 283.51L136.09 308.51L136.09 358.51L92.78 383.51L49.48 358.51L49.48 308.51zM92.78 433.51L136.09 458.51L136.09 508.51L92.78 533.51L49.48 508.51L49.48 458.51zM136.09 508.51L179.39 533.51L179.39 583.51L136.09 608.51L92.78 583.51L92.78 533.51zM92.78 583.51L136.09 608.51L136.09 658.51L92.78 683.51L49.48 658.51L49.48 608.51zM179.39 -16.49L222.69 8.51L222.69 58.51L179.39 83.51L136.09 58.51L136.09 8.51zM179.39 133.51L222.69 158.51L222.69 208.51L179.39 233.51L136.09 208.51L136.09 158.51zM179.39 433.51L222.69 458.51L222.69 508.51L179.39 533.51L136.09 508.51L136.09 458.51zM309.3 658.51L352.6 683.51L352.6 733.51L309.3 758.51L266 733.51L266 683.51zM352.6 -16.49L395.9 8.51L395.9 58.51L352.6 83.51L309.3 58.51L309.3 8.51zM395.9 508.51L439.21 533.51L439.21 583.51L395.9 608.51L352.6 583.51L352.6 533.51zM482.51 58.51L525.81 83.51L525.81 133.51L482.51 158.51L439.21 133.51L439.21 83.51zM482.51 508.51L525.81 533.51L525.81 583.51L482.51 608.51L439.21 583.51L439.21 533.51zM525.81 -16.49L569.11 8.51L569.11 58.51L525.81 83.51L482.51 58.51L482.51 8.51zM569.11 58.51L612.41 83.51L612.41 133.51L569.11 158.51L525.81 133.51L525.81 83.51zM569.11 358.51L612.41 383.51L612.41 433.51L569.11 458.51L525.81 433.51L525.81 383.51zM569.11 508.51L612.41 533.51L612.41 583.51L569.11 608.51L525.81 583.51L525.81 533.51zM655.72 208.51L699.02 233.51L699.02 283.51L655.72 308.51L612.41 283.51L612.41 233.51zM785.63 -16.49L828.93 8.51L828.93 58.51L785.63 83.51L742.32 58.51L742.32 8.51zM785.63 283.51L828.93 308.51L828.93 358.51L785.63 383.51L742.32 358.51L742.32 308.51zM828.93 358.51L872.23 383.51L872.23 433.51L828.93 458.51L785.63 433.51L785.63 383.51zM785.63 583.51L828.93 608.51L828.93 658.51L785.63 683.51L742.32 658.51L742.32 608.51zM915.53 58.51L958.84 83.51L958.84 133.51L915.53 158.51L872.23 133.51L872.23 83.51zM915.53 208.51L958.84 233.51L958.84 283.51L915.53 308.51L872.23 283.51L872.23 233.51zM872.23 283.51L915.53 308.51L915.53 358.51L872.23 383.51L828.93 358.51L828.93 308.51zM915.53 508.51L958.84 533.51L958.84 583.51L915.53 608.51L872.23 583.51L872.23 533.51zM872.23 583.51L915.53 608.51L915.53 658.51L872.23 683.51L828.93 658.51L828.93 608.51zM915.53 658.51L958.84 683.51L958.84 733.51L915.53 758.51L872.23 733.51L872.23 683.51zM1002.14 658.51L1045.44 683.51L1045.44 733.51L1002.14 758.51L958.84 733.51L958.84 683.51zM1045.44 283.51L1088.74 308.51L1088.74 358.51L1045.44 383.51L1002.14 358.51L1002.14 308.51zM1045.44 433.51L1088.74 458.51L1088.74 508.51L1045.44 533.51L1002.14 508.51L1002.14 458.51zM1088.74 508.51L1132.05 533.51L1132.05 583.51L1088.74 608.51L1045.44 583.51L1045.44 533.51zM1045.44 583.51L1088.74 608.51L1088.74 658.51L1045.44 683.51L1002.14 658.51L1002.14 608.51zM1088.74 658.51L1132.05 683.51L1132.05 733.51L1088.74 758.51L1045.44 733.51L1045.44 683.51zM1132.05 283.51L1175.35 308.51L1175.35 358.51L1132.05 383.51L1088.74 358.51L1088.74 308.51zM1261.95 58.51L1305.26 83.51L1305.26 133.51L1261.95 158.51L1218.65 133.51L1218.65 83.51zM1218.65 133.51L1261.95 158.51L1261.95 208.51L1218.65 233.51L1175.35 208.51L1175.35 158.51zM1218.65 283.51L1261.95 308.51L1261.95 358.51L1218.65 383.51L1175.35 358.51L1175.35 308.51zM1261.95 508.51L1305.26 533.51L1305.26 583.51L1261.95 608.51L1218.65 583.51L1218.65 533.51zM1305.26 583.51L1348.56 608.51L1348.56 658.51L1305.26 683.51L1261.95 658.51L1261.95 608.51zM1435.16 208.51L1478.47 233.51L1478.47 283.51L1435.16 308.51L1391.86 283.51L1391.86 233.51z" stroke="url(&quot;#SvgjsLinearGradient1414&quot;)" stroke-width="2"></path></g><defs><mask id="SvgjsMask1413"><rect width="1440" height="700" fill="#ffffff"></rect></mask><linearGradient x1="185.04" y1="-185.01" x2="1254.96" y2="885.01" gradientUnits="userSpaceOnUse" id="SvgjsLinearGradient1414"><stop stop-color="#0e2a47" offset="0"></stop><stop stop-color="rgba(144, 57, 166, 1)" offset="0.72"></stop></linearGradient></defs></svg>